<?xml version="1.0" encoding="UTF-8" standalone="no"?>
<svg
   xmlns:ooo="http://xml.openoffice.org/svg/export"
   xmlns:dc="http://purl.org/dc/elements/1.1/"
   xmlns:cc="http://creativecommons.org/ns#"
   xmlns:rdf="http://www.w3.org/1999/02/22-rdf-syntax-ns#"
   xmlns:svg="http://www.w3.org/2000/svg"
   xmlns="http://www.w3.org/2000/svg"
   xmlns:sodipodi="http://sodipodi.sourceforge.net/DTD/sodipodi-0.dtd"
   xmlns:inkscape="http://www.inkscape.org/namespaces/inkscape"
   version="1.2"
   width="89.400002mm"
   height="14.34mm"
   viewBox="0 0 8940 1434"
   preserveAspectRatio="xMidYMid"
   xml:space="preserve"
   id="svg179"
   sodipodi:docname="logo.svg"
   style="fill-rule:evenodd;stroke-width:28.22200012;stroke-linejoin:round"
   inkscape:version="0.92.2 5c3e80d, 2017-08-06"><metadata
     id="metadata183"><rdf:RDF><cc:Work
         rdf:about=""><dc:format>image/svg+xml</dc:format><dc:type
           rdf:resource="http://purl.org/dc/dcmitype/StillImage" /><dc:title></dc:title></cc:Work></rdf:RDF></metadata><sodipodi:namedview
     pagecolor="#ffffff"
     bordercolor="#666666"
     borderopacity="1"
     objecttolerance="10"
     gridtolerance="10"
     guidetolerance="10"
     inkscape:pageopacity="0"
     inkscape:pageshadow="2"
     inkscape:window-width="1920"
     inkscape:window-height="1016"
     id="namedview181"
     showgrid="false"
     inkscape:zoom="1"
     inkscape:cx="205.32494"
     inkscape:cy="29.98652"
     inkscape:window-x="1920"
     inkscape:window-y="27"
     inkscape:window-maximized="1"
     inkscape:current-layer="g175"
     fit-margin-bottom="1"
     fit-margin-top="0"
     fit-margin-left="0"
     fit-margin-right="0" /><defs
     class="ClipPathGroup"
     id="defs5"><clipPath
       id="presentation_clip_path"
       clipPathUnits="userSpaceOnUse"><rect
         x="0"
         y="0"
         width="10590"
         height="10940"
         id="rect2" /></clipPath></defs><defs
     class="TextShapeIndex"
     id="defs9"><g
       ooo:slide="id1"
       ooo:id-list="id3 id4 id5 id6 id7 id8 id9 id10 id11 id12 id13 id14 id15 id16 id17 id18 id19"
       id="g7" /></defs><defs
     class="EmbeddedBulletChars"
     id="defs38"><g
       id="bullet-char-template(57356)"
       transform="matrix(4.8828125e-4,0,0,-4.8828125e-4,0,0)"><path
         d="M 580,1141 1163,571 580,0 -4,571 Z"
         id="path11"
         inkscape:connector-curvature="0" /></g><g
       id="bullet-char-template(57354)"
       transform="matrix(4.8828125e-4,0,0,-4.8828125e-4,0,0)"><path
         d="M 8,1128 H 1137 V 0 H 8 Z"
         id="path14"
         inkscape:connector-curvature="0" /></g><g
       id="bullet-char-template(10146)"
       transform="matrix(4.8828125e-4,0,0,-4.8828125e-4,0,0)"><path
         d="M 174,0 602,739 174,1481 1456,739 Z M 1358,739 309,1346 659,739 Z"
         id="path17"
         inkscape:connector-curvature="0" /></g><g
       id="bullet-char-template(10132)"
       transform="matrix(4.8828125e-4,0,0,-4.8828125e-4,0,0)"><path
         d="M 2015,739 1276,0 H 717 l 543,543 H 174 v 393 h 1086 l -543,545 h 557 z"
         id="path20"
         inkscape:connector-curvature="0" /></g><g
       id="bullet-char-template(10007)"
       transform="matrix(4.8828125e-4,0,0,-4.8828125e-4,0,0)"><path
         d="m 0,-2 c -7,16 -16,29 -25,39 l 381,530 c -94,256 -141,385 -141,387 0,25 13,38 40,38 9,0 21,-2 34,-5 21,4 42,12 65,25 l 27,-13 111,-251 280,301 64,-25 24,25 c 21,-10 41,-24 62,-43 C 886,937 835,863 770,784 769,783 710,716 594,584 L 774,223 c 0,-27 -21,-55 -63,-84 l 16,-20 C 717,90 699,76 672,76 641,76 570,178 457,381 L 164,-76 c -22,-34 -53,-51 -92,-51 -42,0 -63,17 -64,51 -7,9 -10,24 -10,44 0,9 1,19 2,30 z"
         id="path23"
         inkscape:connector-curvature="0" /></g><g
       id="bullet-char-template(10004)"
       transform="matrix(4.8828125e-4,0,0,-4.8828125e-4,0,0)"><path
         d="M 285,-33 C 182,-33 111,30 74,156 52,228 41,333 41,471 c 0,78 14,145 41,201 34,71 87,106 158,106 53,0 88,-31 106,-94 l 23,-176 c 8,-64 28,-97 59,-98 l 735,706 c 11,11 33,17 66,17 42,0 63,-15 63,-46 V 965 c 0,-36 -10,-64 -30,-84 L 442,47 C 390,-6 338,-33 285,-33 Z"
         id="path26"
         inkscape:connector-curvature="0" /></g><g
       id="bullet-char-template(9679)"
       transform="matrix(4.8828125e-4,0,0,-4.8828125e-4,0,0)"><path
         d="M 813,0 C 632,0 489,54 383,161 276,268 223,411 223,592 c 0,181 53,324 160,431 106,107 249,161 430,161 179,0 323,-54 432,-161 108,-107 162,-251 162,-431 0,-180 -54,-324 -162,-431 C 1136,54 992,0 813,0 Z"
         id="path29"
         inkscape:connector-curvature="0" /></g><g
       id="bullet-char-template(8226)"
       transform="matrix(4.8828125e-4,0,0,-4.8828125e-4,0,0)"><path
         d="m 346,457 c -73,0 -137,26 -191,78 -54,51 -81,114 -81,188 0,73 27,136 81,188 54,52 118,78 191,78 73,0 134,-26 185,-79 51,-51 77,-114 77,-187 0,-75 -25,-137 -76,-188 -50,-52 -112,-78 -186,-78 z"
         id="path32"
         inkscape:connector-curvature="0" /></g><g
       id="bullet-char-template(8211)"
       transform="matrix(4.8828125e-4,0,0,-4.8828125e-4,0,0)"><path
         d="M -4,459 H 1135 V 606 H -4 Z"
         id="path35"
         inkscape:connector-curvature="0" /></g></defs><defs
     class="TextEmbeddedBitmaps"
     id="defs40" /><g
     id="g45"
     transform="translate(-900,-4517)"><g
       id="id2"
       class="Master_Slide"><g
         id="bg-id2"
         class="Background" /><g
         id="bo-id2"
         class="BackgroundObjects" /></g></g><g
     class="SlideGroup"
     id="g177"
     transform="translate(-900,-4517)"><g
       id="g175"><g
         id="id1"
         class="Slide"
         clip-path="url(#presentation_clip_path)"><g
           class="Page"
           id="g172"><g
             class="com.sun.star.drawing.OpenBezierShape"
             id="g52"><g
               id="id3"><rect
                 class="BoundingBox"
                 x="5721"
                 y="4517"
                 width="995"
                 height="997"
                 id="rect47"
                 style="fill:none;stroke:none" /><path
                 d="m 6104,5417 -249,-248 c -183,-184 332,-703 517,-518 l 248,249"
                 id="path49"
                 inkscape:connector-curvature="0"
                 style="fill:none;stroke:#ff7e02;stroke-width:190;stroke-linejoin:round;fill-opacity:1;fill-rule:nonzero;stroke-opacity:1" /></g></g><g
             class="com.sun.star.drawing.PolyPolygonShape"
             id="g61"><g
               id="id4"><rect
                 class="BoundingBox"
                 x="5824"
                 y="5089"
                 width="435"
                 height="434"
                 id="rect54"
                 style="fill:none;stroke:none" /><path
                 d="m 6162,5379 -48,48 -195,-195 47,-48 z"
                 id="path56"
                 inkscape:connector-curvature="0"
                 style="fill:#171616;stroke:none" /><path
                 d="m 6162,5379 -48,48 -195,-195 47,-48 z"
                 id="path58"
                 inkscape:connector-curvature="0"
                 style="fill:#ff7e02;stroke:#ff7e02;stroke-width:190;stroke-linejoin:round;fill-opacity:1;stroke-opacity:1" /></g></g><g
             class="com.sun.star.drawing.PolyPolygonShape"
             id="g70"><g
               id="id5"><rect
                 class="BoundingBox"
                 x="6292"
                 y="4620"
                 width="434"
                 height="435"
                 id="rect63"
                 style="fill:none;stroke:none" /><path
                 d="m 6630,4910 -47,48 -196,-195 48,-48 z"
                 id="path65"
                 inkscape:connector-curvature="0"
                 style="fill:#171616;stroke:none" /><path
                 d="m 6630,4910 -47,48 -196,-195 48,-48 z"
                 id="path67"
                 inkscape:connector-curvature="0"
                 style="fill:none;stroke:#ff7e02;stroke-width:190;stroke-linejoin:round;stroke-opacity:1" /></g></g><g
             class="com.sun.star.drawing.OpenBezierShape"
             id="g77"><g
               id="id6"><rect
                 class="BoundingBox"
                 x="5600"
                 y="4867"
                 width="982"
                 height="984"
                 id="rect72"
                 style="fill:none;stroke:none" /><path
                 d="m 6212,4962 248,247 c 68.7944,68.7944 -9.1747,223.5761 -126.5771,350.8205 C 6203.3729,5700.773 6024.9356,5807.9356 5944,5727 l -249,-248"
                 id="path74"
                 inkscape:connector-curvature="0"
                 style="fill:none;fill-opacity:1;stroke:#ff7e02;stroke-width:190;stroke-linejoin:round;stroke-opacity:1"
                 sodipodi:nodetypes="ccscc" /></g></g><g
             class="com.sun.star.drawing.PolyPolygonShape"
             id="g84"><g
               id="id7"><rect
                 class="BoundingBox"
                 x="6153"
                 y="4951"
                 width="245"
                 height="244"
                 id="rect79"
                 style="fill:none;stroke:none" /><path
                 d="m 6153,4999 48,-48 195,196 -47,47 z"
                 id="path81"
                 inkscape:connector-curvature="0"
                 style="fill:#171616;stroke:none" /></g></g><g
             class="com.sun.star.drawing.PolyPolygonShape"
             id="g91"><g
               id="id8"><rect
                 class="BoundingBox"
                 x="6058"
                 y="4856"
                 width="435"
                 height="434"
                 id="rect86"
                 style="fill:none;stroke:none" /><path
                 d="m 6153,4999 48,-48 195,196 -47,47 z"
                 id="path88"
                 inkscape:connector-curvature="0"
                 style="fill:none;stroke:#ff7e02;stroke-width:190;stroke-linejoin:round;fill-opacity:1;fill-rule:evenodd;stroke-opacity:1" /></g></g><g
             class="com.sun.star.drawing.PolyPolygonShape"
             id="g100"><g
               id="id9"><rect
                 class="BoundingBox"
                 x="5589"
                 y="5325"
                 width="435"
                 height="435"
                 id="rect93"
                 style="fill:none;stroke:none" /><path
                 d="m 5684,5468 48,-48 195,196 -47,47 z"
                 id="path95"
                 inkscape:connector-curvature="0"
                 style="fill:#171616;stroke:none" /><path
                 d="m 5684,5468 48,-48 195,196 -47,47 z"
                 id="path97"
                 inkscape:connector-curvature="0"
                 style="fill:none;stroke:#ff7e02;stroke-width:190;stroke-linejoin:round;fill-opacity:1;stroke-opacity:1" /></g></g><g
             class="com.sun.star.drawing.ClosedBezierShape"
             id="g107"><g
               id="id10"><rect
                 class="BoundingBox"
                 x="900"
                 y="4584"
                 width="852"
                 height="1216"
                 id="rect102"
                 style="fill:none;stroke:none" /><path
                 d="m 1142,5251 c -178,-65 -242,-170 -242,-343 0,-268 124,-324 427,-324 115,0 254,9 385,46 l -17,176 c -99,-3 -243,-5 -367,-5 -126,0 -170,7 -170,107 0,82 34,104 123,132 l 222,77 c 186,66 248,173 248,344 0,267 -116,338 -435,338 -74,0 -223,-5 -403,-44 l 16,-187 c 217,5 313,8 387,8 136,0 173,-18 173,-113 0,-83 -32,-104 -110,-129 z"
                 id="path104"
                 inkscape:connector-curvature="0"
                 style="fill:#ff7e02;stroke:none;fill-opacity:1" /></g></g><g
             class="com.sun.star.drawing.ClosedBezierShape"
             id="g114"><g
               id="id11"><rect
                 class="BoundingBox"
                 x="1822"
                 y="4706"
                 width="484"
                 height="1093"
                 id="rect109"
                 style="fill:none;stroke:none" /><path
                 d="m 2072,5504 c 0,63 23,85 91,85 h 108 l 27,175 c -62,22 -177,34 -236,34 -151,0 -240,-88 -240,-241 v -851 h 250 v 235 h 233 v 168 h -233 z"
                 id="path111"
                 inkscape:connector-curvature="0"
                 style="fill:#ff7e02;stroke:none;fill-opacity:1" /></g></g><g
             class="com.sun.star.drawing.ClosedBezierShape"
             id="g121"><g
               id="id12"><rect
                 class="BoundingBox"
                 x="2402"
                 y="4940"
                 width="801"
                 height="861"
                 id="rect116"
                 style="fill:none;stroke:none" /><path
                 d="m 3202,5777 h -198 l -19,-115 c -117,93 -225,138 -347,138 -156,0 -236,-79 -236,-233 v -627 h 251 v 551 c -1,73 22,98 91,98 61,0 119,-24 209,-69 v -580 h 249 z"
                 id="path118"
                 inkscape:connector-curvature="0"
                 style="fill:#ff7e02;stroke:none;fill-opacity:1" /></g></g><g
             class="com.sun.star.drawing.ClosedBezierShape"
             id="g128"><g
               id="id13"><rect
                 class="BoundingBox"
                 x="3280"
                 y="4589"
                 width="838"
                 height="1210"
                 id="rect123"
                 style="fill:none;stroke:none" /><path
                 d="m 3866,5135 c -60,-17 -110,-32 -178,-32 -108,0 -149,36 -149,246 0,201 41,242 139,242 76,0 117,-22 188,-68 z m 251,642 h -199 l -20,-122 c -66,78 -173,143 -320,143 -213,0 -297,-161 -297,-447 0,-334 111,-434 321,-434 99,0 194,22 272,74 -5,-56 -8,-115 -8,-174 v -228 h 251 z"
                 id="path125"
                 inkscape:connector-curvature="0"
                 style="fill:#ff7e02;stroke:none;fill-opacity:1" /></g></g><g
             class="com.sun.star.drawing.ClosedBezierShape"
             id="g135"><g
               id="id14"><rect
                 class="BoundingBox"
                 x="4221"
                 y="4571"
                 width="260"
                 height="1207"
                 id="rect130"
                 style="fill:none;stroke:none" /><path
                 d="m 4226,4940 h 250 v 837 h -250 z m 181,-369 c 49,0 73,25 73,73 v 91 c 0,49 -24,73 -73,73 h -113 c -49,0 -73,-24 -73,-73 v -91 c 0,-48 24,-73 73,-73 z"
                 id="path132"
                 inkscape:connector-curvature="0"
                 style="fill:#ff7e02;stroke:none;fill-opacity:1" /></g></g><g
             class="com.sun.star.drawing.ClosedBezierShape"
             id="g142"><g
               id="id15"><rect
                 class="BoundingBox"
                 x="4572"
                 y="4917"
                 width="862"
                 height="884"
                 id="rect137"
                 style="fill:none;stroke:none" /><path
                 d="m 4836,5359 c 0,200 36,251 168,251 129,0 166,-51 166,-251 0,-203 -37,-254 -166,-254 -132,0 -168,51 -168,254 z m 597,0 c 0,321 -117,441 -429,441 -314,0 -432,-120 -432,-441 0,-322 118,-442 432,-442 312,0 429,120 429,442 z"
                 id="path139"
                 inkscape:connector-curvature="0"
                 style="fill:#ff7e02;stroke:none;fill-opacity:1" /></g></g><g
             class="com.sun.star.drawing.ClosedBezierShape"
             id="g149"><g
               id="id16"><rect
                 class="BoundingBox"
                 x="6841"
                 y="4606"
                 width="766"
                 height="1178"
                 id="rect144"
                 style="fill:none;stroke:none" /><path
                 d="m 7099,5481 c 0,61 26,86 92,86 h 402 l 12,197 c -156,17 -329,19 -496,19 -188,0 -268,-106 -268,-250 v -927 h 258 z"
                 id="path146"
                 inkscape:connector-curvature="0"
                 style="fill:#ff7e02;stroke:none;fill-opacity:1" /></g></g><g
             class="com.sun.star.drawing.ClosedBezierShape"
             id="g156"><g
               id="id17"><rect
                 class="BoundingBox"
                 x="7697"
                 y="4571"
                 width="260"
                 height="1207"
                 id="rect151"
                 style="fill:none;stroke:none" /><path
                 d="m 7702,4940 h 251 v 837 h -251 z m 181,-369 c 49,0 73,25 73,73 v 91 c 0,49 -24,73 -73,73 h -112 c -49,0 -74,-24 -74,-73 v -91 c 0,-48 25,-73 74,-73 z"
                 id="path153"
                 inkscape:connector-curvature="0"
                 style="fill:#ff7e02;stroke:none;fill-opacity:1" /></g></g><g
             class="com.sun.star.drawing.ClosedBezierShape"
             id="g163"><g
               id="id18"><rect
                 class="BoundingBox"
                 x="8074"
                 y="4917"
                 width="816"
                 height="861"
                 id="rect158"
                 style="fill:none;stroke:none" /><path
                 d="m 8296,5064 c 117,-95 241,-147 359,-147 153,0 234,81 234,232 v 628 h -249 v -550 c 0,-76 -20,-98 -82,-98 -67,0 -135,27 -233,76 v 572 h -251 v -837 h 204 z"
                 id="path160"
                 inkscape:connector-curvature="0"
                 style="fill:#ff7e02;stroke:none;fill-opacity:1" /></g></g><g
             class="com.sun.star.drawing.ClosedBezierShape"
             id="g170"><g
               id="id19"><rect
                 class="BoundingBox"
                 x="9004"
                 y="4589"
                 width="836"
                 height="1189"
                 id="rect165"
                 style="fill:none;stroke:none" /><path
                 d="m 9243,5389 c 7,44 12,88 12,126 v 262 H 9004 V 4589 h 251 v 490 c 0,53 -4,105 -12,154 h 78 l 208,-293 h 281 l -217,291 c -20,34 -57,66 -79,80 v 3 c 22,14 59,55 79,90 l 246,373 h -281 l -235,-388 z"
                 id="path167"
                 inkscape:connector-curvature="0"
                 style="fill:#ff7e02;stroke:none;fill-opacity:1" /></g></g></g></g></g></g></svg>