<svg xmlns="http://www.w3.org/2000/svg" version="1.2" width="694.128" height="50.419" viewBox="0 0 18365.471 1334" preserveAspectRatio="xMidYMid" fill-rule="evenodd" stroke-width="28.222" stroke-linejoin="round"><defs class="ClipPathGroup"><clipPath id="a" clipPathUnits="userSpaceOnUse"><path d="M0 0h10590v10940H0z"/></clipPath></defs><g class="SlideGroup"><g class="Slide" clip-path="url(#a)" transform="translate(-906.615 -4518)"><g class="Page"><g class="com.sun.star.drawing.OpenBezierShape"><path class="BoundingBox" fill="none" d="M5721 4517h995v997h-995z"/><path d="M6104 5417l-249-248c-183-184 332-703 517-518l248 249" fill="none" stroke="#ff7e02" stroke-width="190"/></g><g class="com.sun.star.drawing.PolyPolygonShape"><path class="BoundingBox" fill="none" d="M5824 5089h435v434h-435z"/><path d="M6162 5379l-48 48-195-195 47-48z" fill="#171616"/><path d="M6162 5379l-48 48-195-195 47-48z" fill="#ff7e02" stroke="#ff7e02" stroke-width="190"/></g><g class="com.sun.star.drawing.PolyPolygonShape"><path class="BoundingBox" fill="none" d="M6292 4620h434v435h-434z"/><path d="M6630 4910l-47 48-196-195 48-48z" fill="#171616"/><path d="M6630 4910l-47 48-196-195 48-48z" fill="none" stroke="#ff7e02" stroke-width="190"/></g><g class="com.sun.star.drawing.OpenBezierShape"><path class="BoundingBox" fill="none" d="M5600 4867h982v984h-982z"/><path d="M6212 4962l248 247c68.794 68.794-9.175 223.576-126.577 350.82-130.05 140.953-308.487 248.116-389.423 167.18l-249-248" fill="none" stroke="#ff7e02" stroke-width="190"/></g><g class="com.sun.star.drawing.PolyPolygonShape"><path class="BoundingBox" fill="none" d="M6153 4951h245v244h-245z"/><path d="M6153 4999l48-48 195 196-47 47z" fill="#171616"/></g><g class="com.sun.star.drawing.PolyPolygonShape"><path class="BoundingBox" fill="none" d="M6058 4856h435v434h-435z"/><path d="M6153 4999l48-48 195 196-47 47z" fill="none" stroke="#ff7e02" stroke-width="190"/></g><g class="com.sun.star.drawing.PolyPolygonShape"><path class="BoundingBox" fill="none" d="M5589 5325h435v435h-435z"/><path d="M5684 5468l48-48 195 196-47 47z" fill="#171616"/><path d="M5684 5468l48-48 195 196-47 47z" fill="none" stroke="#ff7e02" stroke-width="190"/></g><g class="com.sun.star.drawing.ClosedBezierShape"><path class="BoundingBox" fill="none" d="M900 4584h852v1216H900z"/><path d="M1142 5251c-178-65-242-170-242-343 0-268 124-324 427-324 115 0 254 9 385 46l-17 176c-99-3-243-5-367-5-126 0-170 7-170 107 0 82 34 104 123 132l222 77c186 66 248 173 248 344 0 267-116 338-435 338-74 0-223-5-403-44l16-187c217 5 313 8 387 8 136 0 173-18 173-113 0-83-32-104-110-129z" fill="#ff7e02"/></g><g class="com.sun.star.drawing.ClosedBezierShape"><path class="BoundingBox" fill="none" d="M1822 4706h484v1093h-484z"/><path d="M2072 5504c0 63 23 85 91 85h108l27 175c-62 22-177 34-236 34-151 0-240-88-240-241v-851h250v235h233v168h-233z" fill="#ff7e02"/></g><g class="com.sun.star.drawing.ClosedBezierShape"><path class="BoundingBox" fill="none" d="M2402 4940h801v861h-801z"/><path d="M3202 5777h-198l-19-115c-117 93-225 138-347 138-156 0-236-79-236-233v-627h251v551c-1 73 22 98 91 98 61 0 119-24 209-69v-580h249z" fill="#ff7e02"/></g><g class="com.sun.star.drawing.ClosedBezierShape"><path class="BoundingBox" fill="none" d="M3280 4589h838v1210h-838z"/><path d="M3866 5135c-60-17-110-32-178-32-108 0-149 36-149 246 0 201 41 242 139 242 76 0 117-22 188-68zm251 642h-199l-20-122c-66 78-173 143-320 143-213 0-297-161-297-447 0-334 111-434 321-434 99 0 194 22 272 74-5-56-8-115-8-174v-228h251z" fill="#ff7e02"/></g><g class="com.sun.star.drawing.ClosedBezierShape"><path class="BoundingBox" fill="none" d="M4221 4571h260v1207h-260z"/><path d="M4226 4940h250v837h-250zm181-369c49 0 73 25 73 73v91c0 49-24 73-73 73h-113c-49 0-73-24-73-73v-91c0-48 24-73 73-73z" fill="#ff7e02"/></g><g class="com.sun.star.drawing.ClosedBezierShape"><path class="BoundingBox" fill="none" d="M4572 4917h862v884h-862z"/><path d="M4836 5359c0 200 36 251 168 251 129 0 166-51 166-251 0-203-37-254-166-254-132 0-168 51-168 254zm597 0c0 321-117 441-429 441-314 0-432-120-432-441 0-322 118-442 432-442 312 0 429 120 429 442z" fill="#ff7e02"/></g><g class="com.sun.star.drawing.ClosedBezierShape"><path class="BoundingBox" fill="none" d="M6841 4606h766v1178h-766z"/><path d="M7099 5481c0 61 26 86 92 86h402l12 197c-156 17-329 19-496 19-188 0-268-106-268-250v-927h258z" fill="#ff7e02"/></g><g class="com.sun.star.drawing.ClosedBezierShape"><path class="BoundingBox" fill="none" d="M7697 4571h260v1207h-260z"/><path d="M7702 4940h251v837h-251zm181-369c49 0 73 25 73 73v91c0 49-24 73-73 73h-112c-49 0-74-24-74-73v-91c0-48 25-73 74-73z" fill="#ff7e02"/></g><g class="com.sun.star.drawing.ClosedBezierShape"><path class="BoundingBox" fill="none" d="M8074 4917h816v861h-816z"/><path d="M8296 5064c117-95 241-147 359-147 153 0 234 81 234 232v628h-249v-550c0-76-20-98-82-98-67 0-135 27-233 76v572h-251v-837h204z" fill="#ff7e02"/></g><g class="com.sun.star.drawing.ClosedBezierShape"><path class="BoundingBox" fill="none" d="M9004 4589h836v1189h-836z"/><path d="M9243 5389c7 44 12 88 12 126v262h-251V4589h251v490c0 53-4 105-12 154h78l208-293h281l-217 291c-20 34-57 66-79 80v3c22 14 59 55 79 90l246 373h-281l-235-388z" fill="#ff7e02"/></g></g></g><g aria-label="Plug-in" style="line-height:125.99999905%;-inkscape-font-specification:'Exo 2 Bold';font-variant-ligatures:normal;font-variant-caps:normal;font-variant-numeric:normal;font-feature-settings:normal;text-align:start" font-weight="700" font-size="1270" font-family="Exo 2" letter-spacing="0" word-spacing="0" fill="#c7c7c9" stroke-width="26.458" stroke-linejoin="miter"><path d="M9419.314 1240.754v-876.3q118.11-11.43 332.74-11.43 184.15 0 251.46 59.69 68.58 59.69 68.58 226.06t-64.77 227.33q-63.5 59.69-229.87 59.69-83.82 0-165.1-10.16v325.12zm193.04-463.55h135.89q74.93-1.27 101.6-29.21 27.94-27.94 27.94-109.22t-27.94-109.22q-26.67-27.94-101.6-27.94l-135.89 1.27zM10375.624 351.754v684.53q0 63.5 71.12 63.5h50.8l21.59 130.81q-48.26 25.4-149.86 25.4-83.82 0-132.08-44.45-48.26-45.72-48.26-128.27v-731.52zM11197.314 614.644v626.11h-148.59l-13.97-86.36q-129.54 102.87-259.08 102.87-176.53 0-176.53-173.99v-468.63h187.96v411.48q-1.27 40.64 13.97 57.15 15.24 16.51 53.34 16.51 54.61 0 156.21-52.07v-433.07zM11984.714 697.194l-78.74 10.16q15.24 35.56 15.24 90.17 0 109.22-66.04 154.94-64.77 45.72-228.6 45.72-54.61 0-107.95-6.35-15.24 20.32-6.35 45.72 10.16 25.4 43.18 29.21l227.33 26.67q96.52 11.43 138.43 55.88 43.18 44.45 43.18 130.81 0 119.38-72.39 161.29-71.12 41.91-256.54 41.91-193.04 0-261.62-40.64-68.58-39.37-68.58-146.05 0-48.26 21.59-78.74 22.86-31.75 77.47-57.15-43.18-41.91-35.56-102.87 8.89-62.23 55.88-90.17-92.71-43.18-92.71-168.91 0-110.49 66.04-156.21 66.04-45.72 229.87-45.72 99.06 0 163.83 17.78h201.93zm-358.14 181.61q68.58 0 93.98-17.78 26.67-17.78 26.67-63.5 0-46.99-25.4-63.5-25.4-16.51-95.25-16.51t-96.52 16.51q-25.4 16.51-25.4 63.5 0 45.72 25.4 63.5 26.67 17.78 96.52 17.78zm55.88 337.82l-157.48-16.51q-40.64 33.02-40.64 72.39 0 45.72 27.94 58.42 27.94 12.7 120.65 12.7 92.71 0 121.92-13.97 30.48-12.7 30.48-54.61 0-33.02-19.05-41.91-19.05-8.89-83.82-16.51zM12462.235 979.134h-378.46v-123.19h378.46zM12669.244 337.784h83.82q54.61 0 54.61 54.61v68.58q0 54.61-54.61 54.61h-83.82q-54.61 0-54.61-54.61v-68.58q0-54.61 54.61-54.61zm135.89 902.97h-186.69v-626.11h186.69zM13116.283 614.644l13.97 92.71q135.89-110.49 267.97-110.49 85.09 0 129.54 44.45 45.72 44.45 45.72 129.54v469.9h-186.69v-411.48q0-41.91-13.97-57.15-12.7-16.51-46.99-16.51-59.69 0-173.99 57.15v427.99h-187.96v-626.11z" style="-inkscape-font-specification:'Exo 2 Bold'"/></g></g></svg>