<svg xmlns="http://www.w3.org/2000/svg" version="1.2" width="694.128" height="50.419" viewBox="0 0 18365.471 1334" preserveAspectRatio="xMidYMid" fill-rule="evenodd" stroke-width="28.222" stroke-linejoin="round"><defs class="ClipPathGroup"><clipPath id="a" clipPathUnits="userSpaceOnUse"><path d="M0 0h10590v10940H0z"/></clipPath></defs><g class="SlideGroup"><g class="Slide" clip-path="url(#a)" transform="translate(-906.615 -4518)"><g class="Page"><g class="com.sun.star.drawing.OpenBezierShape"><path class="BoundingBox" fill="none" d="M5721 4517h995v997h-995z"/><path d="M6104 5417l-249-248c-183-184 332-703 517-518l248 249" fill="none" stroke="#ff7e02" stroke-width="190"/></g><g class="com.sun.star.drawing.PolyPolygonShape"><path class="BoundingBox" fill="none" d="M5824 5089h435v434h-435z"/><path d="M6162 5379l-48 48-195-195 47-48z" fill="#171616"/><path d="M6162 5379l-48 48-195-195 47-48z" fill="#ff7e02" stroke="#ff7e02" stroke-width="190"/></g><g class="com.sun.star.drawing.PolyPolygonShape"><path class="BoundingBox" fill="none" d="M6292 4620h434v435h-434z"/><path d="M6630 4910l-47 48-196-195 48-48z" fill="#171616"/><path d="M6630 4910l-47 48-196-195 48-48z" fill="none" stroke="#ff7e02" stroke-width="190"/></g><g class="com.sun.star.drawing.OpenBezierShape"><path class="BoundingBox" fill="none" d="M5600 4867h982v984h-982z"/><path d="M6212 4962l248 247c68.794 68.794-9.175 223.576-126.577 350.82-130.05 140.953-308.487 248.116-389.423 167.18l-249-248" fill="none" stroke="#ff7e02" stroke-width="190"/></g><g class="com.sun.star.drawing.PolyPolygonShape"><path class="BoundingBox" fill="none" d="M6153 4951h245v244h-245z"/><path d="M6153 4999l48-48 195 196-47 47z" fill="#171616"/></g><g class="com.sun.star.drawing.PolyPolygonShape"><path class="BoundingBox" fill="none" d="M6058 4856h435v434h-435z"/><path d="M6153 4999l48-48 195 196-47 47z" fill="none" stroke="#ff7e02" stroke-width="190"/></g><g class="com.sun.star.drawing.PolyPolygonShape"><path class="BoundingBox" fill="none" d="M5589 5325h435v435h-435z"/><path d="M5684 5468l48-48 195 196-47 47z" fill="#171616"/><path d="M5684 5468l48-48 195 196-47 47z" fill="none" stroke="#ff7e02" stroke-width="190"/></g><g class="com.sun.star.drawing.ClosedBezierShape"><path class="BoundingBox" fill="none" d="M900 4584h852v1216H900z"/><path d="M1142 5251c-178-65-242-170-242-343 0-268 124-324 427-324 115 0 254 9 385 46l-17 176c-99-3-243-5-367-5-126 0-170 7-170 107 0 82 34 104 123 132l222 77c186 66 248 173 248 344 0 267-116 338-435 338-74 0-223-5-403-44l16-187c217 5 313 8 387 8 136 0 173-18 173-113 0-83-32-104-110-129z" fill="#ff7e02"/></g><g class="com.sun.star.drawing.ClosedBezierShape"><path class="BoundingBox" fill="none" d="M1822 4706h484v1093h-484z"/><path d="M2072 5504c0 63 23 85 91 85h108l27 175c-62 22-177 34-236 34-151 0-240-88-240-241v-851h250v235h233v168h-233z" fill="#ff7e02"/></g><g class="com.sun.star.drawing.ClosedBezierShape"><path class="BoundingBox" fill="none" d="M2402 4940h801v861h-801z"/><path d="M3202 5777h-198l-19-115c-117 93-225 138-347 138-156 0-236-79-236-233v-627h251v551c-1 73 22 98 91 98 61 0 119-24 209-69v-580h249z" fill="#ff7e02"/></g><g class="com.sun.star.drawing.ClosedBezierShape"><path class="BoundingBox" fill="none" d="M3280 4589h838v1210h-838z"/><path d="M3866 5135c-60-17-110-32-178-32-108 0-149 36-149 246 0 201 41 242 139 242 76 0 117-22 188-68zm251 642h-199l-20-122c-66 78-173 143-320 143-213 0-297-161-297-447 0-334 111-434 321-434 99 0 194 22 272 74-5-56-8-115-8-174v-228h251z" fill="#ff7e02"/></g><g class="com.sun.star.drawing.ClosedBezierShape"><path class="BoundingBox" fill="none" d="M4221 4571h260v1207h-260z"/><path d="M4226 4940h250v837h-250zm181-369c49 0 73 25 73 73v91c0 49-24 73-73 73h-113c-49 0-73-24-73-73v-91c0-48 24-73 73-73z" fill="#ff7e02"/></g><g class="com.sun.star.drawing.ClosedBezierShape"><path class="BoundingBox" fill="none" d="M4572 4917h862v884h-862z"/><path d="M4836 5359c0 200 36 251 168 251 129 0 166-51 166-251 0-203-37-254-166-254-132 0-168 51-168 254zm597 0c0 321-117 441-429 441-314 0-432-120-432-441 0-322 118-442 432-442 312 0 429 120 429 442z" fill="#ff7e02"/></g><g class="com.sun.star.drawing.ClosedBezierShape"><path class="BoundingBox" fill="none" d="M6841 4606h766v1178h-766z"/><path d="M7099 5481c0 61 26 86 92 86h402l12 197c-156 17-329 19-496 19-188 0-268-106-268-250v-927h258z" fill="#ff7e02"/></g><g class="com.sun.star.drawing.ClosedBezierShape"><path class="BoundingBox" fill="none" d="M7697 4571h260v1207h-260z"/><path d="M7702 4940h251v837h-251zm181-369c49 0 73 25 73 73v91c0 49-24 73-73 73h-112c-49 0-74-24-74-73v-91c0-48 25-73 74-73z" fill="#ff7e02"/></g><g class="com.sun.star.drawing.ClosedBezierShape"><path class="BoundingBox" fill="none" d="M8074 4917h816v861h-816z"/><path d="M8296 5064c117-95 241-147 359-147 153 0 234 81 234 232v628h-249v-550c0-76-20-98-82-98-67 0-135 27-233 76v572h-251v-837h204z" fill="#ff7e02"/></g><g class="com.sun.star.drawing.ClosedBezierShape"><path class="BoundingBox" fill="none" d="M9004 4589h836v1189h-836z"/><path d="M9243 5389c7 44 12 88 12 126v262h-251V4589h251v490c0 53-4 105-12 154h78l208-293h281l-217 291c-20 34-57 66-79 80v3c22 14 59 55 79 90l246 373h-281l-235-388z" fill="#ff7e02"/></g></g></g><g aria-label="Standalone" style="line-height:125.99999905%;-inkscape-font-specification:'Exo 2 Bold';font-variant-ligatures:normal;font-variant-caps:normal;font-variant-numeric:normal;font-feature-settings:normal;text-align:start" font-weight="700" font-size="1270" font-family="Exo 2" letter-spacing="0" word-spacing="0" fill="#c7c7c9" stroke-width="26.458" stroke-linejoin="miter"><path d="M9743.164 909.284l-176.53-62.23q-97.79-35.56-139.7-96.52-41.91-60.96-41.91-160.02 0-144.78 69.85-193.04 71.12-49.53 248.92-49.53 167.64 0 288.29 34.29l-12.7 132.08q-110.49-3.81-274.32-3.81-76.2 0-101.6 13.97-25.4 12.7-25.4 66.04 0 43.18 19.05 62.23 19.05 19.05 72.39 36.83l166.37 57.15q101.6 35.56 143.51 97.79 41.91 60.96 41.91 160.02 0 147.32-71.12 200.66-71.12 52.07-254 52.07-148.59 0-300.99-33.02l11.43-139.7q270.51 6.35 289.56 6.35 77.47 0 102.87-16.51 26.67-16.51 26.67-68.58 0-44.45-17.78-62.23-17.78-19.05-64.77-34.29zM10384.516 740.374v295.91q0 35.56 15.24 49.53 15.24 13.97 53.34 13.97h80.01l20.32 130.81q-72.39 25.4-176.53 25.4-85.09 0-132.08-46.99-46.99-48.26-46.99-133.35v-335.28h-110.49v-119.38l110.49-6.35v-175.26h186.69v175.26h173.99v125.73zM10679.155 754.344l-17.78-127q168.91-30.48 326.39-30.48 127 0 186.69 52.07 59.69 50.8 59.69 177.8v414.02h-148.59l-19.05-95.25q-93.98 110.49-231.14 110.49-90.17 0-147.32-46.99-57.15-48.26-57.15-133.35v-63.5q0-74.93 50.8-116.84t140.97-41.91h223.52v-27.94q-1.27-48.26-22.86-64.77-20.32-16.51-80.01-16.51-104.14 0-264.16 10.16zm137.16 271.78v24.13q0 64.77 73.66 64.77 76.2 0 156.21-60.96v-87.63h-168.91q-60.96 1.27-60.96 59.69zM11535.134 614.644l13.97 92.71q135.89-110.49 267.97-110.49 85.09 0 129.54 44.45 45.72 44.45 45.72 129.54v469.9h-186.69v-411.48q0-41.91-13.97-57.15-12.7-16.51-46.99-16.51-59.69 0-173.99 57.15v427.99h-187.96v-626.11zM12742.906 351.754v889h-148.59l-15.24-91.44q-90.17 106.68-238.76 106.68-116.84 0-170.18-83.82-52.07-85.09-52.07-250.19 0-180.34 58.42-252.73 58.42-72.39 181.61-72.39 120.65 0 203.2 55.88-6.35-69.85-6.35-130.81v-170.18zm-187.96 698.5v-289.56q-85.09-24.13-133.35-24.13-63.5 0-87.63 35.56-22.86 35.56-22.86 148.59 0 107.95 22.86 144.78 22.86 35.56 81.28 35.56 39.37 0 67.31-10.16 27.94-11.43 72.39-40.64zM12914.355 754.344l-17.78-127q168.91-30.48 326.39-30.48 127 0 186.69 52.07 59.69 50.8 59.69 177.8v414.02h-148.59l-19.05-95.25q-93.98 110.49-231.14 110.49-90.17 0-147.32-46.99-57.15-48.26-57.15-133.35v-63.5q0-74.93 50.8-116.84t140.97-41.91h223.52v-27.94q-1.27-48.26-22.86-64.77-20.32-16.51-80.01-16.51-104.14 0-264.16 10.16zm137.16 271.78v24.13q0 64.77 73.66 64.77 76.2 0 156.21-60.96v-87.63h-168.91q-60.96 1.27-60.96 59.69zM13805.895 351.754v684.53q0 63.5 71.12 63.5h50.8l21.59 130.81q-48.26 25.4-149.86 25.4-83.82 0-132.08-44.45-48.26-45.72-48.26-128.27v-731.52zM14329.134 596.864q175.26 0 247.65 76.2 73.66 74.93 73.66 255.27t-73.66 255.27q-72.39 73.66-247.65 73.66-176.53 0-250.19-73.66-72.39-74.93-72.39-255.27 0-181.61 72.39-256.54 73.66-74.93 250.19-74.93zm0 140.97q-74.93 0-100.33 38.1-25.4 38.1-25.4 152.4 0 111.76 25.4 149.86 25.4 38.1 100.33 38.1 72.39 0 97.79-38.1 26.67-38.1 26.67-149.86 0-113.03-25.4-151.13-25.4-39.37-99.06-39.37zM14931.114 614.644l13.97 92.71q135.89-110.49 267.97-110.49 85.09 0 129.54 44.45 45.72 44.45 45.72 129.54v469.9h-186.69v-411.48q0-41.91-13.97-57.15-12.7-16.51-46.99-16.51-59.69 0-173.99 57.15v427.99h-187.96v-626.11zM15938.226 990.564h-226.06q8.89 68.58 40.64 92.71 33.02 22.86 107.95 22.86 100.33 0 233.68-13.97l17.78 116.84q-97.79 46.99-273.05 46.99-176.53 0-251.46-76.2t-74.93-251.46q0-184.15 72.39-257.81 73.66-73.66 246.38-73.66 156.21 0 226.06 54.61 69.85 53.34 71.12 163.83 0 87.63-45.72 132.08-44.45 43.18-144.78 43.18zm-229.87-113.03h177.8q34.29 0 45.72-16.51 12.7-16.51 12.7-48.26 0-44.45-22.86-60.96-22.86-17.78-83.82-17.78-72.39 0-99.06 29.21-26.67 27.94-30.48 114.3z" style="-inkscape-font-specification:'Exo 2 Bold'"/></g></g></svg>